<svg id="Layer_1" data-name="Layer 1" xmlns="http://www.w3.org/2000/svg" viewBox="0 0 2010 460"><defs><style>.cls-1{fill:#71a28a;}</style></defs><path class="cls-1" d="M152.31,337q-23.64-7.75-37.14-20.46l11.91-22.25q12.72,11.53,33.17,18.87a124,124,0,0,0,42.31,7.35q29.38,0,43.5-10.33t14.1-26.61q0-12.7-8-20.46a51.13,51.13,0,0,0-19.86-11.72q-11.91-4-32.17-8.74-25.44-6-40.92-11.92a65.9,65.9,0,0,1-26.42-18.47q-10.92-12.51-10.92-33.56,0-28.2,22.64-45.89t63.16-17.67a152.16,152.16,0,0,1,39.53,5.16Q266.51,125.43,280,135l-10.33,23q-25.81-18.27-62.76-18.27-28.22,0-42.51,10.52t-14.3,27.21q0,12.72,7.95,20.46a50.7,50.7,0,0,0,20.06,11.72q12.1,4,32.77,8.74,25,6,40.52,11.72a65.25,65.25,0,0,1,26.42,18.07q10.92,12.33,10.92,33,0,28.61-22.84,46.09T201.77,344.7A157.86,157.86,0,0,1,152.31,337Z"/><path class="cls-1" d="M330.31,115.3h29.26V320.52h128V344.9H330.31Z"/><path class="cls-1" d="M544.42,329.89a110.65,110.65,0,0,1-43.34-41.15q-15.7-26.24-15.7-58.84,0-32.21,15.7-58.44a112.06,112.06,0,0,1,43.34-41.35Q572.05,115,605.85,115q34.18,0,61.62,14.91a110.7,110.7,0,0,1,43.14,41.35q15.71,26.44,15.7,58.64,0,32.61-15.7,58.84a111.12,111.12,0,0,1-43.14,41.15Q640,344.8,605.85,344.8,572,344.8,544.42,329.89Zm108.34-21.47a85.54,85.54,0,0,0,33-32.2q11.93-20.48,11.93-45.92,0-25.85-11.93-46.32a85.61,85.61,0,0,0-33-32.2q-21.07-11.73-46.91-11.73t-46.92,11.73a85.61,85.61,0,0,0-33,32.2Q514,204.46,514,230.3q0,25.44,11.93,45.92a85.54,85.54,0,0,0,33,32.2q21.08,11.74,46.92,11.73T652.76,308.42Z"/><path class="cls-1" d="M1441.78,285.62H1312.85L1286,345h-29.28l106.15-229.8h28.88L1497.91,345h-29.29ZM1431.21,262l-53.69-119.17L1323.42,262Z"/><path class="cls-1" d="M1687.93,115.2,1585,345h-28.87L1453.24,115.2h31.32l86.63,195.23,87-195.23Z"/><path class="cls-1" d="M1894.83,320.6V345H1727.67V115.2H1890v24.4H1757v76.87h118.77v24H1757V320.6Z"/><path class="cls-1" d="M1195.54,338.4c-20.63,0-28.06-40.8-38.46-107.36-3.87-24.81-7.88-50.47-12.76-69.2-6.76-26-12.25-26.69-12.3-26.69s-5.54.73-12.3,26.69c-4.88,18.73-8.89,44.39-12.76,69.21-10.4,66.55-17.83,107.35-38.46,107.35s-28-40.8-38.45-107.36c-3.87-24.81-7.88-50.47-12.76-69.2-6.76-26-12.25-26.69-12.3-26.69s-5.54.73-12.3,26.69c-4.87,18.73-8.88,44.39-12.76,69.21-10.4,66.55-17.82,107.35-38.45,107.35S913.43,297.6,903,231.05c-3.88-24.82-7.89-50.48-12.76-69.21-6.76-26-12.25-26.69-12.3-26.69s-5.54.73-12.3,26.69c-4.88,18.73-8.89,44.39-12.76,69.21C842.5,297.6,835.08,338.4,814.46,338.4S786.41,297.6,776,231.05c-3.88-24.82-7.89-50.48-12.77-69.21-6.76-26-12.24-26.69-12.3-26.69a6.78,6.78,0,0,1-6.67-8,6.94,6.94,0,0,1,7.15-5.59c20.27.62,27.65,41.3,38,107.34,3.88,24.82,7.89,50.48,12.77,69.21,6.76,26,12.24,26.69,12.3,26.69s5.53-.73,12.29-26.69c4.88-18.73,8.89-44.39,12.77-69.2C849.92,162.4,857.34,121.6,878,121.6S906,162.4,916.42,229c3.88,24.81,7.89,50.47,12.76,69.2,6.76,26,12.25,26.69,12.3,26.69s5.54-.73,12.3-26.69c4.88-18.73,8.89-44.39,12.76-69.21C976.94,162.4,984.36,121.6,1005,121.6s28,40.8,38.45,107.35c3.88,24.82,7.89,50.48,12.77,69.21,6.76,26,12.24,26.69,12.29,26.69s5.54-.73,12.3-26.69c4.88-18.73,8.89-44.39,12.77-69.2C1104,162.4,1111.39,121.6,1132,121.6s28,40.8,38.45,107.35c3.88,24.82,7.89,50.48,12.77,69.21,6.76,26,12.25,26.69,12.3,26.69s5.54-.73,12.3-26.69c4.87-18.73,8.89-44.39,12.76-69.2,10.32-66.05,17.71-106.73,38-107.35a6.94,6.94,0,0,1,7.15,5.59,6.78,6.78,0,0,1-6.67,8c-.06,0-5.54.73-12.31,26.69-4.87,18.73-8.88,44.39-12.76,69.21C1223.59,297.6,1216.17,338.4,1195.54,338.4Z"/><path class="cls-1" d="M1195.54,340.57c-5.7,0-10.73-2.78-15-8.26-3.77-4.88-7.1-12.08-10.17-22-5.84-18.87-10.27-45.76-15.46-78.94-3.86-24.75-7.86-50.35-12.72-69-4.72-18.14-8.72-23.33-10.18-24.7h0c-1.46,1.37-5.46,6.56-10.18,24.7-4.85,18.62-8.85,44.23-12.72,69-5.19,33.19-9.62,60.07-15.46,78.94-3.07,9.92-6.4,17.11-10.17,22-4.23,5.48-9.27,8.26-15,8.26s-10.73-2.78-15-8.26c-3.77-4.88-7.1-12.08-10.17-22-5.84-18.87-10.27-45.76-15.46-78.94-3.87-24.77-7.87-50.37-12.72-69-4.72-18.13-8.72-23.32-10.18-24.7h0c-1.46,1.38-5.46,6.57-10.18,24.7-4.85,18.63-8.85,44.23-12.72,69-5.18,33.18-9.61,60.07-15.46,78.94-3.07,9.92-6.39,17.11-10.17,22-4.23,5.48-9.26,8.26-15,8.26s-10.73-2.78-15-8.26c-3.78-4.88-7.1-12.07-10.17-22-5.84-18.87-10.28-45.75-15.46-78.94-3.87-24.76-7.87-50.36-12.72-69-4.72-18.14-8.72-23.33-10.18-24.7h0c-1.46,1.37-5.46,6.56-10.18,24.7-4.85,18.63-8.85,44.23-12.72,69-5.19,33.18-9.62,60.07-15.46,78.94-3.07,9.92-6.4,17.11-10.17,22-4.24,5.48-9.27,8.26-15,8.26s-10.73-2.78-15-8.26c-3.77-4.88-7.1-12.07-10.17-22-5.84-18.87-10.27-45.76-15.46-78.94-3.87-24.76-7.87-50.37-12.72-69-5.38-20.68-9.82-24.53-10.64-25.08h0a9,9,0,0,1-8.33-10.65,9.17,9.17,0,0,1,9.64-7.2c5.34.26,10.09,3,14.11,8.23,3.77,4.88,7.1,12.07,10.17,22,5.84,18.87,10.27,45.76,15.46,78.94,3.86,24.76,7.86,50.36,12.71,69,4.73,18.13,8.73,23.32,10.19,24.7h0c1.46-1.38,5.46-6.57,10.19-24.7,4.85-18.63,8.85-44.23,12.71-69,5.19-33.18,9.62-60.07,15.47-78.94,3.06-9.91,6.39-17.11,10.16-22,4.24-5.48,9.27-8.26,15-8.26s10.73,2.78,15,8.26c3.77,4.88,7.1,12.08,10.17,22,5.85,18.87,10.28,45.76,15.46,78.94,3.87,24.76,7.87,50.36,12.72,69,4.72,18.14,8.72,23.32,10.18,24.7h0c1.46-1.38,5.46-6.57,10.18-24.7,4.85-18.63,8.85-44.23,12.72-69,5.18-33.18,9.61-60.07,15.46-78.94,3.07-9.92,6.4-17.11,10.17-22,4.23-5.48,9.27-8.26,15-8.26s10.73,2.78,15,8.26c3.77,4.88,7.09,12.07,10.16,22,5.85,18.87,10.28,45.75,15.46,78.94,3.87,24.76,7.87,50.37,12.72,69,4.73,18.14,8.73,23.32,10.19,24.7h0c1.46-1.38,5.46-6.56,10.19-24.7,4.85-18.62,8.85-44.22,12.71-69,5.19-33.19,9.62-60.08,15.47-78.95,3.07-9.91,6.39-17.11,10.17-22,4.23-5.48,9.26-8.26,15-8.26s10.73,2.78,15,8.26c3.78,4.88,7.1,12.07,10.17,22,5.85,18.87,10.28,45.76,15.46,78.94,3.87,24.75,7.87,50.35,12.72,69,4.73,18.14,8.73,23.33,10.19,24.7h0c1.46-1.37,5.46-6.56,10.18-24.7,4.85-18.64,8.85-44.24,12.72-69,5.19-33.18,9.62-60.07,15.46-78.94,3.07-9.92,6.4-17.11,10.17-22,4-5.2,8.77-8,14.11-8.23a9.17,9.17,0,0,1,9.64,7.2,9,9,0,0,1-8.33,10.65h0c-.82.55-5.26,4.4-10.65,25.08-4.85,18.64-8.85,44.24-12.72,69-5.18,33.18-9.61,60.07-15.46,78.94-3.07,9.92-6.39,17.11-10.17,22C1206.27,337.79,1201.23,340.57,1195.54,340.57ZM1132,133c1.65,0,7.56,2.05,14.4,28.31,4.91,18.86,8.92,44.56,12.81,69.42,5,31.87,9.57,59.77,15.32,78.33s12.41,27.19,21,27.19,15.25-8.64,21-27.19,10.34-46.46,15.32-78.33c3.88-24.86,7.9-50.57,12.81-69.41,6.84-26.27,12.75-28.32,14.4-28.32a4.61,4.61,0,0,0,4.6-4.88,4.82,4.82,0,0,0-5.1-4.32c-8.34.33-14.86,9-20.5,27.18-5.74,18.56-10.34,46.46-15.32,78.33-3.88,24.86-7.9,50.56-12.8,69.41C1203.1,325,1197.19,327,1195.54,327s-7.56-2-14.4-28.32c-4.91-18.84-8.93-44.55-12.81-69.41-5-31.87-9.57-59.77-15.32-78.33s-12.41-27.19-21-27.19-15.25,8.64-21,27.19-10.34,46.46-15.32,78.33c-3.89,24.87-7.9,50.59-12.81,69.41C1076.06,325,1070.15,327,1068.5,327s-7.55-2-14.39-28.32c-4.91-18.83-8.92-44.54-12.81-69.41-5-31.88-9.57-59.77-15.32-78.33s-12.41-27.19-21-27.19-15.24,8.64-21,27.19-10.34,46.46-15.32,78.33c-3.88,24.86-7.9,50.58-12.8,69.41C949,325,943.13,327,941.48,327s-7.56-2-14.4-28.32c-4.9-18.83-8.92-44.54-12.8-69.41-5-31.87-9.57-59.77-15.32-78.33s-12.41-27.19-21-27.19-15.25,8.64-21,27.19-10.34,46.46-15.32,78.33c-3.89,24.87-7.9,50.58-12.81,69.41C822,325,816.1,327,814.46,327s-7.56-2-14.4-28.32c-4.91-18.83-8.92-44.55-12.81-69.41-5-31.87-9.57-59.77-15.32-78.33-5.63-18.19-12.15-26.85-20.49-27.18a4.82,4.82,0,0,0-5.1,4.32,4.61,4.61,0,0,0,4.6,4.88c1.65,0,7.56,2.05,14.4,28.32,4.9,18.83,8.92,44.54,12.81,69.41,5,31.87,9.57,59.77,15.32,78.33s12.41,27.19,21,27.19,15.24-8.64,21-27.19,10.34-46.46,15.32-78.33c3.89-24.86,7.9-50.58,12.81-69.41C870.41,135,876.32,133,878,133s7.56,2.05,14.4,28.32c4.9,18.83,8.92,44.55,12.8,69.41,5,31.87,9.57,59.77,15.32,78.33s12.41,27.19,21,27.19,15.25-8.64,21-27.19,10.34-46.46,15.32-78.33c3.88-24.86,7.9-50.58,12.8-69.41C997.44,135,1003.34,133,1005,133s7.56,2.05,14.4,28.31c4.9,18.83,8.92,44.54,12.8,69.41,5,31.88,9.58,59.78,15.32,78.34s12.42,27.19,21,27.19,15.25-8.64,21-27.19,10.33-46.46,15.31-78.33c3.89-24.87,7.91-50.58,12.81-69.41C1124.46,135,1130.37,133,1132,133Z"/><path class="cls-1" d="M1195.54,342.73c-6.4,0-12-3.06-16.68-9.1-3.94-5.09-7.38-12.5-10.53-22.67-5.89-19-10.33-46-15.53-79.25-3.86-24.7-7.85-50.24-12.68-68.78-3.41-13.11-6.34-19.12-8.08-21.8h0c-1.74,2.68-4.67,8.69-8.08,21.81-4.83,18.51-8.82,44.07-12.68,68.78C1106,265,1101.6,292,1095.71,311c-3.15,10.17-6.59,17.58-10.53,22.68-4.66,6-10.27,9.09-16.68,9.09s-12-3.06-16.67-9.1c-3.94-5.09-7.38-12.5-10.53-22.67-5.89-19-10.33-46-15.53-79.25-3.86-24.71-7.85-50.26-12.67-68.78-3.42-13.11-6.35-19.12-8.08-21.8h0c-1.73,2.68-4.67,8.69-8.08,21.8-4.82,18.53-8.82,44.08-12.68,68.79C979,265,974.57,292,968.68,311c-3.14,10.17-6.59,17.58-10.52,22.67-4.67,6-10.28,9.1-16.68,9.1s-12-3.06-16.68-9.09c-3.93-5.1-7.37-12.51-10.52-22.68-5.89-19-10.33-46-15.53-79.24-3.86-24.71-7.86-50.26-12.68-68.78-3.41-13.12-6.35-19.13-8.08-21.81h0c-1.73,2.68-4.66,8.69-8.08,21.81-4.82,18.52-8.81,44.07-12.67,68.78C852,265,847.55,292,841.66,311c-3.15,10.17-6.59,17.58-10.53,22.68-4.66,6-10.27,9.09-16.67,9.09s-12-3.06-16.68-9.1c-3.94-5.09-7.38-12.5-10.53-22.67-5.88-19-10.33-46-15.53-79.24-3.86-24.72-7.85-50.27-12.67-68.79-4.58-17.56-8.29-22.39-9.4-23.51h0a11.11,11.11,0,0,1-9.76-11.9c.47-6.21,6.28-10.64,12.49-10.19,5.82.42,10.94,3.46,15.26,9.05,3.94,5.09,7.38,12.5,10.53,22.67,5.88,19,10.33,46,15.53,79.24,3.86,24.71,7.85,50.26,12.67,68.79,3.42,13.11,6.35,19.12,8.08,21.8h.05c1.73-2.68,4.66-8.69,8.08-21.8,4.82-18.53,8.81-44.08,12.67-68.78,5.2-33.28,9.65-60.24,15.53-79.25,3.15-10.17,6.59-17.58,10.53-22.67,4.66-6,10.28-9.1,16.68-9.1s12,3.06,16.68,9.1c3.93,5.09,7.37,12.5,10.52,22.67,5.89,19,10.33,46,15.53,79.25,3.86,24.7,7.85,50.25,12.68,68.78,3.41,13.11,6.35,19.12,8.08,21.8h0c1.74-2.68,4.67-8.69,8.08-21.8,4.83-18.53,8.82-44.08,12.68-68.79,5.2-33.27,9.64-60.23,15.53-79.24,3.15-10.17,6.59-17.58,10.52-22.67,4.67-6,10.28-9.1,16.68-9.1s12,3.06,16.68,9.1c3.93,5.09,7.38,12.5,10.52,22.67,5.89,19,10.34,46,15.54,79.24,3.86,24.72,7.85,50.27,12.67,68.78,3.42,13.12,6.35,19.13,8.08,21.81h0c1.73-2.68,4.66-8.69,8.08-21.8,4.82-18.52,8.81-44.07,12.67-68.77,5.2-33.29,9.65-60.25,15.54-79.26,3.14-10.17,6.59-17.58,10.52-22.67,4.67-6,10.28-9.1,16.68-9.1s12,3.06,16.68,9.09c3.93,5.1,7.38,12.51,10.52,22.68,5.89,19,10.34,46,15.54,79.24,3.86,24.71,7.85,50.25,12.67,68.78,3.42,13.12,6.35,19.13,8.09,21.81h0c1.73-2.68,4.67-8.69,8.08-21.8,4.83-18.54,8.82-44.08,12.68-68.78,5.2-33.28,9.64-60.24,15.53-79.25,3.15-10.17,6.59-17.58,10.53-22.67,4.31-5.59,9.44-8.63,15.26-9.05,6.21-.45,12,4,12.49,10.19a11.11,11.11,0,0,1-9.76,11.9h0c-1.11,1.12-4.82,6-9.4,23.52-4.83,18.53-8.82,44.07-12.68,68.78-5.19,33.27-9.64,60.23-15.53,79.24-3.15,10.17-6.59,17.58-10.52,22.68C1207.55,339.67,1201.94,342.73,1195.54,342.73ZM1132,130.82c4,0,10,5.19,16.5,29.93,4.93,18.95,9,44.71,12.85,69.63,5,31.78,9.54,59.59,15.25,78,3.41,11,9.08,25.66,18.92,25.66s15.51-14.64,18.92-25.66c5.7-18.43,10.28-46.24,15.25-78,3.89-24.92,7.91-50.68,12.85-69.63,6.37-24.45,12.39-29.81,16.36-29.93a2.57,2.57,0,0,0,2.51-1.88,2.44,2.44,0,0,0-2.37-3c-9.84,0-15.51,14.65-18.93,25.66-5.7,18.43-10.28,46.24-15.24,78-3.9,24.92-7.92,50.68-12.85,69.63-6.45,24.74-12.53,29.93-16.5,29.93s-10.06-5.19-16.5-29.93c-4.93-18.95-9-44.71-12.85-69.63-5-31.78-9.54-59.59-15.25-78-3.41-11-9.08-25.66-18.92-25.66s-15.51,14.65-18.92,25.66c-5.71,18.43-10.28,46.24-15.25,78-3.89,24.92-7.92,50.69-12.85,69.62-6.44,24.74-12.53,29.93-16.5,29.93s-10-5.19-16.49-29.93c-4.93-18.94-9-44.71-12.85-69.63-5-31.79-9.54-59.6-15.25-78-3.41-11-9.08-25.66-18.92-25.66s-15.51,14.64-18.92,25.66c-5.7,18.43-10.28,46.24-15.24,78-3.9,24.92-7.92,50.69-12.85,69.63-6.45,24.74-12.53,29.93-16.5,29.93S931.43,324,925,299.25c-4.94-18.94-9-44.71-12.85-69.62-5-31.79-9.55-59.6-15.25-78-3.41-11-9.09-25.66-18.92-25.66s-15.51,14.65-18.92,25.66c-5.71,18.43-10.28,46.24-15.25,78-3.89,24.91-7.92,50.68-12.85,69.62-6.44,24.74-12.53,29.93-16.49,29.93S804.4,324,798,299.25c-4.93-18.94-9-44.71-12.85-69.63-5-31.78-9.54-59.6-15.25-78-3.4-11-9-25.54-18.8-25.66a2.63,2.63,0,0,0-2.52,2,2.44,2.44,0,0,0,2.4,2.83c4,0,10.06,5.19,16.5,29.93,4.93,18.94,9,44.71,12.85,69.63,5,31.78,9.54,59.6,15.25,78,3.41,11,9.08,25.66,18.92,25.66s15.5-14.64,18.91-25.66c5.71-18.42,10.28-46.24,15.25-78,3.89-24.92,7.92-50.69,12.85-69.63C867.91,136,874,130.82,878,130.82s10,5.19,16.49,29.93c4.94,18.94,9,44.71,12.85,69.63,5,31.78,9.55,59.6,15.25,78,3.41,11,9.09,25.66,18.92,25.66S957,319.42,960.4,308.4c5.7-18.42,10.28-46.24,15.25-78,3.89-24.92,7.92-50.69,12.85-69.63C994.94,136,1001,130.82,1005,130.82s10,5.19,16.5,29.93c4.93,18.93,9,44.7,12.85,69.61,5,31.8,9.54,59.61,15.24,78,3.42,11,9.09,25.66,18.92,25.66s15.51-14.64,18.92-25.66c5.71-18.42,10.29-46.24,15.25-78,3.9-24.92,7.92-50.69,12.85-69.63C1122,136,1128.05,130.82,1132,130.82Z"/><path class="cls-1" d="M1195.54,344.9c-7.11,0-13.3-3.34-18.4-9.94-4.09-5.3-7.65-12.94-10.88-23.36-5.93-19.15-10.39-46.19-15.6-79.55-3.85-24.65-7.83-50.14-12.63-68.57a105.82,105.82,0,0,0-6-17.8s0,0-.06,0a105.82,105.82,0,0,0-6,17.8c-4.79,18.41-8.77,43.9-12.62,68.55-5.22,33.38-9.68,60.42-15.61,79.58C1094.55,322,1091,329.66,1086.9,335c-5.1,6.6-11.29,9.94-18.4,9.94s-13.29-3.34-18.39-9.94c-4.1-5.3-7.65-12.94-10.88-23.36-5.93-19.15-10.39-46.19-15.6-79.55-3.85-24.66-7.84-50.16-12.63-68.57a105.82,105.82,0,0,0-6-17.8,0,0,0,0,0,0,0,104.89,104.89,0,0,0-6,17.8c-4.8,18.41-8.78,43.9-12.63,68.55-5.22,33.38-9.68,60.42-15.61,79.57C967.53,322,964,329.66,959.87,335c-5.09,6.6-11.28,9.94-18.39,9.94s-13.3-3.34-18.39-9.94c-4.1-5.3-7.66-12.94-10.88-23.36-5.93-19.15-10.39-46.19-15.61-79.55-3.85-24.66-7.83-50.15-12.63-68.57a104,104,0,0,0-6-17.8,0,0,0,0,0,0,0,105.82,105.82,0,0,0-6,17.8c-4.79,18.42-8.78,43.91-12.63,68.57-5.21,33.36-9.67,60.4-15.6,79.56C840.5,322,836.94,329.66,832.85,335c-5.1,6.6-11.29,9.94-18.39,9.94s-13.3-3.34-18.4-9.94c-4.09-5.3-7.65-12.94-10.88-23.36-5.93-19.15-10.39-46.19-15.6-79.55-3.85-24.66-7.84-50.15-12.63-68.57-4-15.2-7.17-20.45-8.41-22h0a13.28,13.28,0,0,1-10.84-13.64c.32-7.57,7.2-13.16,14.76-12.65,6.49.44,12.16,3.76,16.9,9.89,4.09,5.3,7.65,12.94,10.88,23.36,5.93,19.15,10.39,46.19,15.6,79.55,3.85,24.65,7.83,50.15,12.63,68.57a105.82,105.82,0,0,0,6,17.8,0,0,0,0,0,.05,0,105.82,105.82,0,0,0,6-17.8c4.8-18.42,8.78-43.91,12.63-68.57,5.21-33.36,9.67-60.4,15.6-79.55,3.23-10.42,6.79-18.06,10.88-23.36,5.1-6.6,11.29-9.94,18.4-9.94s13.3,3.34,18.39,9.94c4.1,5.3,7.66,12.94,10.88,23.36,5.93,19.15,10.39,46.19,15.6,79.55,3.86,24.66,7.84,50.15,12.64,68.57a104,104,0,0,0,6,17.8,0,0,0,0,0,0,0,105.82,105.82,0,0,0,6-17.8c4.79-18.42,8.77-43.92,12.63-68.57,5.21-33.36,9.67-60.4,15.6-79.55C978.94,138,982.5,130.34,986.6,125c5.1-6.6,11.28-9.94,18.39-9.94s13.3,3.34,18.4,9.94c4.09,5.3,7.65,12.94,10.88,23.35,5.93,19.16,10.38,46.2,15.6,79.56,3.85,24.66,7.83,50.16,12.63,68.57a105.82,105.82,0,0,0,6,17.8,0,0,0,0,0,0,0,105.82,105.82,0,0,0,6-17.8c4.79-18.41,8.78-43.9,12.63-68.55,5.21-33.37,9.67-60.42,15.6-79.57,3.23-10.42,6.79-18.06,10.89-23.36,5.09-6.6,11.28-9.94,18.39-9.94s13.3,3.34,18.4,9.94c4.09,5.3,7.65,12.94,10.88,23.35,5.93,19.16,10.39,46.2,15.6,79.56,3.85,24.65,7.83,50.14,12.63,68.57a105.82,105.82,0,0,0,6,17.8,0,0,0,0,0,0,0,104.65,104.65,0,0,0,6-17.8c4.79-18.43,8.77-43.92,12.63-68.56,5.21-33.37,9.67-60.41,15.6-79.56,3.23-10.42,6.79-18.06,10.88-23.36,4.74-6.13,10.41-9.45,16.89-9.89,7.56-.52,14.45,5.08,14.77,12.65a13.28,13.28,0,0,1-10.84,13.64h0c-1.24,1.59-4.45,6.84-8.41,22-4.8,18.43-8.78,43.91-12.63,68.55-5.22,33.38-9.68,60.42-15.61,79.58-3.22,10.41-6.78,18.05-10.88,23.35C1208.84,341.56,1202.65,344.9,1195.54,344.9ZM1132,137.16a0,0,0,0,1,0,0l1.8,2.75c1.92,3,4.94,9.26,8.38,22.48,4.86,18.64,8.86,44.23,12.72,69,5.19,33.18,9.62,60.07,15.46,78.94,3.07,9.91,6.4,17.11,10.17,22,4.24,5.48,9.27,8.26,15,8.26s10.73-2.78,15-8.26c3.78-4.88,7.1-12.08,10.17-22,5.85-18.87,10.28-45.76,15.46-78.94,3.87-24.77,7.87-50.36,12.72-69,4.62-17.72,8.51-23,10-24.51l.54-.53.47-.06a9.13,9.13,0,0,0,8-7.2,9,9,0,0,0-8.78-10.66c-5.7,0-10.73,2.78-15,8.26-3.77,4.88-7.1,12.07-10.17,22-5.84,18.88-10.27,45.76-15.46,78.94-3.87,24.76-7.87,50.35-12.72,69-3.44,13.22-6.46,19.52-8.39,22.48l-1.79,2.75s0,0,0,0l-1.79-2.75c-1.92-3-4.94-9.26-8.39-22.48-4.85-18.64-8.85-44.23-12.72-69-5.18-33.18-9.61-60.07-15.46-78.94-3.07-9.92-6.39-17.11-10.17-22-4.23-5.48-9.26-8.26-15-8.26s-10.73,2.78-15,8.26c-3.78,4.88-7.1,12.07-10.17,22-5.85,18.87-10.28,45.76-15.47,78.95-3.86,24.76-7.86,50.36-12.71,69-3.45,13.22-6.46,19.52-8.39,22.47l-1.79,2.76a0,0,0,0,1,0,0l-1.79-2.75c-1.93-3-5-9.26-8.39-22.48-4.85-18.62-8.85-44.23-12.72-69-5.18-33.18-9.61-60.07-15.46-78.94-3.07-9.92-6.39-17.11-10.16-22-4.24-5.48-9.27-8.26-15-8.26s-10.73,2.78-15,8.26c-3.77,4.88-7.1,12.07-10.17,22-5.85,18.88-10.28,45.76-15.46,78.94-3.87,24.76-7.87,50.36-12.72,69-3.44,13.22-6.46,19.52-8.38,22.47l-1.8,2.76a0,0,0,0,1,0,0l-1.8-2.76c-1.92-2.95-4.94-9.25-8.38-22.47-4.85-18.63-8.85-44.23-12.72-69-5.18-33.18-9.61-60.07-15.46-78.94-3.07-9.91-6.39-17.11-10.17-22-4.23-5.48-9.27-8.26-15-8.26s-10.73,2.78-15,8.26c-3.77,4.88-7.1,12.08-10.16,22-5.85,18.87-10.28,45.76-15.47,78.94-3.86,24.76-7.86,50.36-12.71,69-3.45,13.22-6.46,19.52-8.39,22.47l-1.79,2.76a0,0,0,0,1-.05,0l-1.79-2.76c-1.93-2.95-4.94-9.25-8.39-22.47-4.85-18.63-8.85-44.23-12.71-69-5.19-33.18-9.62-60.07-15.46-78.94-3.07-9.92-6.4-17.11-10.17-22-4-5.17-8.71-7.94-14-8.23-4.91-.27-9.52,3.38-9.87,8.28a8.94,8.94,0,0,0,7.87,9.52l.75.09.54.53c1.46,1.47,5.35,6.79,10,24.51,4.85,18.62,8.86,44.23,12.72,69,5.19,33.18,9.62,60.07,15.46,78.94,3.07,9.92,6.4,17.11,10.17,22,4.24,5.48,9.27,8.26,15,8.26s10.72-2.78,15-8.26c3.77-4.88,7.1-12.08,10.17-22,5.84-18.87,10.27-45.75,15.46-78.94,3.87-24.76,7.87-50.37,12.72-69,3.44-13.22,6.46-19.52,8.38-22.48l1.79-2.75s0,0,0,0l1.79,2.75c1.93,3,5,9.26,8.39,22.48,4.85,18.62,8.85,44.23,12.72,69,5.18,33.19,9.62,60.07,15.46,78.94,3.07,9.91,6.39,17.11,10.17,22,4.23,5.48,9.27,8.26,15,8.26s10.73-2.78,15-8.26c3.78-4.88,7.1-12.08,10.17-22,5.85-18.87,10.28-45.76,15.46-78.94,3.87-24.77,7.87-50.37,12.72-69,3.44-13.22,6.46-19.52,8.39-22.47l1.79-2.76s0,0,0,0l1.79,2.76c1.92,3,4.94,9.25,8.38,22.47,4.85,18.62,8.85,44.22,12.72,69,5.19,33.18,9.62,60.06,15.46,78.94,3.07,9.91,6.4,17.11,10.17,22,4.23,5.48,9.27,8.26,15,8.26s10.74-2.78,15-8.26c3.77-4.88,7.1-12.07,10.17-22,5.84-18.87,10.27-45.75,15.46-78.94,3.87-24.78,7.87-50.37,12.72-69,3.44-13.22,6.46-19.52,8.38-22.48Zm63.54,199.07c-5.16,0-9.78-3.28-13.72-9.74-3.4-5.57-5.78-12.63-7.27-17.45-5.75-18.57-10.34-46.46-15.32-78.33-3.89-24.86-7.9-50.56-12.81-69.42C1139.58,135,1133.67,133,1132,133s-7.56,2.05-14.4,28.32c-4.9,18.83-8.92,44.54-12.81,69.41-5,31.87-9.57,59.77-15.31,78.33-1.5,4.82-3.88,11.88-7.27,17.45-4,6.46-8.56,9.74-13.73,9.74s-9.77-3.28-13.72-9.74c-3.39-5.57-5.77-12.63-7.27-17.45-5.74-18.56-10.33-46.46-15.32-78.34-3.88-24.87-7.9-50.58-12.8-69.41C1012.55,135,1006.64,133,1005,133s-7.55,2.05-14.4,28.32c-4.9,18.83-8.92,44.54-12.8,69.41-5,31.87-9.57,59.77-15.32,78.33-1.49,4.82-3.87,11.88-7.27,17.45-3.94,6.46-8.56,9.74-13.72,9.74s-9.78-3.28-13.72-9.74c-3.4-5.57-5.78-12.63-7.27-17.45-5.75-18.56-10.34-46.46-15.32-78.33-3.88-24.86-7.9-50.58-12.8-69.41C885.53,135,879.62,133,878,133s-7.56,2.05-14.4,28.32c-4.9,18.83-8.92,44.54-12.81,69.41-5,31.88-9.57,59.77-15.32,78.33-1.49,4.82-3.87,11.88-7.27,17.45-3.94,6.46-8.55,9.74-13.71,9.74s-9.78-3.28-13.72-9.74c-3.4-5.57-5.78-12.63-7.27-17.45-5.75-18.56-10.34-46.46-15.32-78.33-3.89-24.87-7.9-50.58-12.81-69.41C758.5,135,752.59,133,750.94,133a4.62,4.62,0,0,1-4.6-4.87,4.87,4.87,0,0,1,5.13-4.33c4.95.22,9.38,3.49,13.19,9.73,3.4,5.57,5.78,12.63,7.27,17.45,5.75,18.56,10.34,46.45,15.32,78.33,3.89,24.86,7.9,50.57,12.81,69.41C806.9,325,812.81,327,814.46,327s7.55-2,14.39-28.32c4.91-18.84,8.92-44.55,12.81-69.41,5-31.87,9.57-59.77,15.32-78.33,1.49-4.82,3.87-11.88,7.27-17.45,3.94-6.46,8.56-9.74,13.72-9.74s9.78,3.28,13.72,9.74c3.4,5.57,5.78,12.63,7.27,17.45,5.75,18.56,10.34,46.46,15.32,78.33,3.88,24.88,7.9,50.58,12.8,69.42C933.92,325,939.83,327,941.48,327s7.56-2,14.4-28.32c4.9-18.84,8.92-44.55,12.8-69.41,5-31.87,9.57-59.77,15.32-78.33,1.5-4.82,3.87-11.88,7.27-17.45,4-6.46,8.56-9.74,13.72-9.74s9.78,3.28,13.72,9.74c3.4,5.57,5.78,12.63,7.27,17.45,5.75,18.56,10.34,46.46,15.32,78.33,3.89,24.87,7.9,50.58,12.81,69.41C1061,325,1066.86,327,1068.5,327s7.56-2,14.4-28.31c4.91-18.83,8.92-44.55,12.81-69.41,5-31.88,9.57-59.77,15.32-78.34,1.49-4.82,3.87-11.88,7.27-17.45,3.94-6.46,8.56-9.74,13.72-9.74s9.78,3.28,13.72,9.74c3.4,5.57,5.78,12.63,7.27,17.45,5.75,18.56,10.34,46.45,15.32,78.33,3.89,24.86,7.9,50.57,12.81,69.41C1188,325,1193.89,327,1195.54,327s7.56-2,14.4-28.32c4.9-18.85,8.92-44.55,12.8-69.41,5-31.87,9.58-59.76,15.32-78.33,1.5-4.82,3.88-11.88,7.28-17.45,3.8-6.24,8.24-9.51,13.19-9.73a4.87,4.87,0,0,1,5.13,4.33,4.62,4.62,0,0,1-4.6,4.87c-1.65,0-7.56,2.05-14.4,28.32-4.91,18.84-8.93,44.55-12.81,69.41-5,31.87-9.57,59.77-15.32,78.33-1.49,4.82-3.87,11.88-7.27,17.45C1205.32,333,1200.7,336.23,1195.54,336.23ZM1132,128.65c7,0,13.06,10.32,18.59,31.55,5,19.06,9,44.88,12.9,69.84,5,31.7,9.52,59.43,15.18,77.72,1.85,6,7.47,24.13,16.85,24.13s15-18.16,16.85-24.13c5.66-18.29,10.22-46,15.17-77.72,3.91-25,7.94-50.78,12.9-69.84,5.53-21.23,11.61-31.55,18.6-31.55a.28.28,0,0,0,.27-.27.28.28,0,0,0-.27-.27c-9.38,0-15,18.16-16.85,24.13-5.67,18.29-10.23,46-15.18,77.72-3.9,25-7.93,50.78-12.9,69.84-5.53,21.23-11.61,31.55-18.59,31.55s-13.07-10.32-18.6-31.55c-5-19.06-9-44.88-12.89-69.84-5-31.71-9.52-59.43-15.18-77.72-1.85-6-7.47-24.13-16.85-24.13s-15,18.16-16.85,24.13c-5.66,18.29-10.22,46-15.18,77.72-3.9,25-7.93,50.8-12.89,69.84-5.53,21.23-11.61,31.55-18.6,31.55s-13.06-10.32-18.59-31.55c-5-19-9-44.87-12.89-69.84-5-31.7-9.52-59.43-15.18-77.72-1.85-6-7.47-24.13-16.85-24.13s-15,18.16-16.85,24.13c-5.66,18.29-10.22,46-15.17,77.72-3.9,25-7.94,50.79-12.9,69.84-5.53,21.23-11.61,31.55-18.59,31.55S928.42,321,922.89,299.8c-5-19.05-9-44.86-12.89-69.82-5-31.72-9.52-59.45-15.18-77.74-1.85-6-7.48-24.13-16.85-24.13s-15,18.16-16.85,24.13c-5.66,18.29-10.22,46-15.18,77.72-3.9,25-7.93,50.79-12.89,69.84-5.53,21.23-11.61,31.55-18.59,31.55S801.39,321,795.86,299.8c-5-19.05-9-44.87-12.89-69.84-5-31.71-9.52-59.44-15.18-77.72-1.85-6-7.47-24.13-16.85-24.13a.28.28,0,0,0-.27.27.28.28,0,0,0,.27.27c7,0,13.07,10.32,18.6,31.55,5,19.05,9,44.87,12.89,69.84,5,31.7,9.52,59.44,15.18,77.72,1.85,6,7.47,24.13,16.85,24.13s15-18.16,16.84-24.13c5.66-18.28,10.22-46,15.18-77.72,3.9-25,7.93-50.79,12.89-69.84C864.9,139,871,128.65,878,128.65S891,139,896.56,160.2c5,19.05,9,44.87,12.9,69.84,4.95,31.7,9.51,59.43,15.17,77.72,1.85,6,7.48,24.13,16.85,24.13s15-18.16,16.85-24.13c5.66-18.29,10.22-46,15.17-77.72,3.91-25,7.94-50.79,12.9-69.84C991.93,139,998,128.65,1005,128.65s13.07,10.32,18.6,31.55c4.95,19,9,44.86,12.89,69.83,5,31.71,9.51,59.44,15.18,77.73,1.84,6,7.47,24.13,16.84,24.13s15-18.16,16.85-24.13c5.67-18.29,10.23-46,15.18-77.72,3.9-25,7.94-50.8,12.9-69.84C1119,139,1125,128.65,1132,128.65Z"/></svg>